HIERARCHY
ROOT Hips
{
	OFFSET 0.00000 0.00000 0.00000
	CHANNELS 6 Xposition Yposition Zposition Zrotation Yrotation Xrotation 
	JOINT LHipJoint
	{
		OFFSET 0 0 0
		CHANNELS 3 Zrotation Yrotation Xrotation
		JOINT LeftHip
		{
			OFFSET 1.48831 -1.59570 0.95625
			CHANNELS 3 Zrotation Yrotation Xrotation
			JOINT LeftKnee
			{
				OFFSET 2.20856 -6.06797 0.00000
				CHANNELS 3 Zrotation Yrotation Xrotation
				JOINT LeftAnkle
				{
					OFFSET 2.62924 -7.22379 0.00000
					CHANNELS 3 Zrotation Yrotation Xrotation
					JOINT LeftToe
					{
						OFFSET 0.16802 -0.46163 2.41673
						CHANNELS 3 Zrotation Yrotation Xrotation
						End Site
						{
							OFFSET 0.00000 -0.00000 1.23760
						}
					}
				}
			}
		}
	}
	JOINT RHipJoint
	{
		OFFSET 0 0 0
		CHANNELS 3 Zrotation Yrotation Xrotation
		JOINT RightHip
		{
			OFFSET -1.56796 -1.59570 0.95625
			CHANNELS 3 Zrotation Yrotation Xrotation
			JOINT RightKnee
			{
				OFFSET -2.29239 -6.29829 0.00000
				CHANNELS 3 Zrotation Yrotation Xrotation
				JOINT RightAnkle
				{
					OFFSET -2.66963 -7.33475 0.00000
					CHANNELS 3 Zrotation Yrotation Xrotation
					JOINT RightToe
					{
						OFFSET -0.18185 -0.49964 2.34359
						CHANNELS 3 Zrotation Yrotation Xrotation
						End Site
						{
							OFFSET -0.00000 -0.00000 1.20477
						}
					}
				}
			}
		}
	}
	JOINT lowerback
	{
		OFFSET 0 0 0
		CHANNELS 3 Zrotation Yrotation Xrotation
		JOINT Chest
		{
			OFFSET 0.03505 2.15832 -0.34324
			CHANNELS 3 Zrotation Yrotation Xrotation
			JOINT Chest2
			{
				OFFSET -0.01089 2.17963 0.04689
				CHANNELS 3 Zrotation Yrotation Xrotation
				JOINT lowerneck
				{
					OFFSET 0 0 0
					CHANNELS 3 Zrotation Yrotation Xrotation
					JOINT Neck
					{
						OFFSET 0.04686 1.69404 0.22159
						CHANNELS 3 Zrotation Yrotation Xrotation
						JOINT Head
						{
							OFFSET 0.00265 1.69305 -0.01513
							CHANNELS 3 Zrotation Yrotation Xrotation
							End Site
							{
								OFFSET -0.00415 1.80215 -0.03034
							}
						}
					}
				}
				JOINT LeftCollar
				{
					OFFSET 0 0 0
					CHANNELS 3 Zrotation Yrotation Xrotation
					JOINT LeftShoulder
					{
						OFFSET 3.67184 1.11724 -0.19002
CHANNELS 3 Zrotation Xrotation Yrotation
						JOINT LeftElbow
						{
OFFSET 0 -5.177140 -0.000000
CHANNELS 3 Zrotation Xrotation Yrotation
							JOINT LeftWrist
							{
OFFSET 0 -3.436790 -0.000000
CHANNELS 3 Zrotation Xrotation Yrotation
								JOINT lhand
								{
									OFFSET 0 0 0
CHANNELS 3 Zrotation Xrotation Yrotation
									JOINT LFingers
									{
OFFSET 0 -0.573120 -0.000000
CHANNELS 3 Zrotation Xrotation Yrotation
										End Site
										{
OFFSET 0 -0.462060 -0.000000
										}
									}
								}
								JOINT LThumb
								{
OFFSET 0 0.000000 0.000000
CHANNELS 3 Zrotation Xrotation Yrotation
									End Site
									{
OFFSET 0 -0.469120 0.469120
									}
								}
							}
						}
					}
				}
				JOINT RightCollar
				{
					OFFSET 0 0 0
					CHANNELS 3 Zrotation Yrotation Xrotation
					JOINT RightShoulder
					{
						OFFSET -3.59596 0.95831 -0.26050
CHANNELS 3 Zrotation Xrotation Yrotation
						JOINT RightElbow
						{
OFFSET 0 -5.239080 -0.000000
CHANNELS 3 Zrotation Xrotation Yrotation
							JOINT RightWrist
							{
OFFSET 0 -3.464850 -0.000000
CHANNELS 3 Zrotation Xrotation Yrotation
								JOINT rhand
								{
									OFFSET 0 0 0
CHANNELS 3 Zrotation Xrotation Yrotation
									JOINT RFingers
									{
OFFSET 0 -0.608750 -0.000000
CHANNELS 3 Zrotation Xrotation Yrotation
										End Site
										{
OFFSET 0 -0.490790 -0.000000
										}
									}
								}
								JOINT RThumb
								{
OFFSET 0 0.000000 0.000000
CHANNELS 3 Zrotation Xrotation Yrotation
									End Site
									{
OFFSET 0 -0.498290 0.498290
									}
								}
							}
						}
					}
				}
			}
		}
	}
}
MOTION
Frames: 11
Frame Time: 0.008333333333333333
3.580100 16.464800 -7.341800 -7.702400 -26.919400 3.376600 0.000000 0.000000 0.000000 1.874700 -5.200500 -13.767700 1.811800 8.462500 24.128000 -0.848000 -16.237600 8.743200 0.144500 2.449700 6.750100 0.000000 0.000000 0.000000 27.949700 8.910100 0.176700 -2.099100 -9.069600 26.013300 -0.839400 8.772000 -16.548200 -0.052200 -1.474500 4.055600 7.193100 -0.600800 0.766600 0.799100 -1.020800 5.194200 -3.230200 -0.232200 4.874000 4.329400 2.401500 -5.207900 1.714000 2.218100 21.908400 0.002700 1.488100 7.631700 -0.000000 -0.000000 0.000000 3.129200 -1.727700 -15.745600 12.890900 -21.127200 2.413800 18.808400 -14.988500 -7.084000 0.000000 0.000000 0.000000 -7.125000 0.000000 0.000000 -6.789000 37.381900 -1.279900 -0.000000 -0.000000 0.000000 -2.524700 -3.773800 12.815700 -11.988900 -19.788100 -2.098500 -23.804600 8.377400 5.764000 0.000000 0.000000 0.000000 7.125000 0.000000 -0.000000 2.446100 36.266300 0.525700
4.046674 16.502706 -6.719514 -8.035008 -33.120189 5.036538 0.000000 0.000000 0.000000 -0.951774 -3.968492 -9.984662 1.585454 7.943281 22.541966 -0.719598 -15.721692 0.218747 0.024512 1.009969 2.776321 0.000000 0.000000 0.000000 24.594718 11.795567 -0.429107 -2.298991 -9.462946 27.254411 -0.354948 11.755163 -12.570822 -0.060685 -1.589544 4.372675 6.160478 -0.725624 0.568516 0.611920 -1.168866 5.013276 -2.855202 -0.353576 4.781280 4.976097 3.173176 -5.330605 0.760490 3.346581 22.245365 -0.321688 1.981738 7.812431 0.000000 0.000000 0.000000 3.354289 -1.768256 -15.819221 12.853993 -21.072856 2.400520 18.799545 -14.964663 -7.454214 0.000000 0.000000 0.000000 -7.125000 0.000000 0.000000 -6.845769 37.768555 -1.225596 0.000000 0.000000 0.000000 -2.887311 -2.398821 11.579708 -13.256749 -21.662225 -2.547317 -23.068129 5.440270 5.941243 0.000000 0.000000 0.000000 7.125000 0.000000 0.000000 3.078402 36.418446 0.650397
4.538525 16.547727 -6.151382 -8.388640 -37.842682 6.641104 0.000000 0.000000 0.000000 -4.517051 -2.421010 -8.254873 1.425892 7.550905 21.358015 -0.103718 -12.435800 -7.254281 0.007656 -0.564270 -1.550680 0.000000 0.000000 0.000000 21.236381 14.975455 -2.497168 -2.732189 -10.248322 29.784580 0.017590 12.535948 -8.558775 -0.051525 -1.464755 4.028510 4.848137 -0.761863 0.567714 0.585500 -1.184022 4.869086 -2.148958 -0.422080 4.638972 5.253803 3.751090 -5.586606 -0.227194 4.276578 22.488227 -0.607845 2.348330 7.988704 0.000000 0.000000 0.000000 4.252789 -3.386882 -17.960034 13.303546 -21.730351 2.564568 18.174180 -15.815440 -7.289925 0.000000 0.000000 0.000000 -7.125000 0.000000 0.000000 -7.352476 37.556324 -1.355950 0.000000 0.000000 0.000000 -1.826719 -0.788877 10.249902 -15.760982 -25.195301 -3.543710 -22.345532 2.322717 6.047326 0.000000 0.000000 0.000000 7.125000 0.000000 0.000000 3.694775 36.492610 0.774329
5.038208 16.568523 -5.650677 -8.871521 -42.053043 8.087341 0.000000 0.000000 0.000000 -7.638418 -0.363277 -8.028878 1.367083 7.400107 20.906296 0.347510 -9.746250 -11.689663 0.019889 -0.906036 -2.490243 0.000000 0.000000 0.000000 18.133149 18.621005 -5.328739 -3.357029 -11.251571 33.133265 0.185859 11.643483 -5.143749 -0.021431 -0.944204 2.595217 3.701120 -0.581529 0.634837 0.398738 -0.913078 4.923077 -1.691965 -0.329771 4.682039 5.608310 4.215674 -5.749358 -1.011180 5.012571 22.463279 -0.857391 2.646249 8.062212 0.000000 0.000000 0.000000 5.918401 -6.006711 -20.483771 14.550405 -23.515993 3.044356 18.666230 -17.147377 -7.212467 0.000000 0.000000 0.000000 -7.125000 0.000000 0.000000 -6.926124 37.507155 -1.284744 0.000000 0.000000 0.000000 0.166355 -0.083984 8.909871 -17.680299 -27.745843 -4.399375 -21.952809 0.836209 6.370995 0.000000 0.000000 0.000000 7.125000 0.000000 0.000000 4.055065 36.817937 0.817805
5.521734 16.566607 -5.212883 -9.560185 -46.811302 9.322994 0.000000 0.000000 0.000000 -10.161065 4.571790 -9.398981 1.383817 7.443310 21.035494 0.409789 -10.562073 -12.691310 0.016282 -0.822905 -2.261695 0.000000 0.000000 0.000000 15.423978 21.621142 -9.075904 -4.236027 -12.467841 37.408012 0.167754 9.375722 -2.929390 -0.000840 0.175056 -0.480969 2.678363 -0.214693 1.079562 0.030172 -0.380877 5.017195 -1.480996 -0.101957 4.555666 5.921762 4.663492 -5.824487 -1.712963 5.716215 22.488876 -1.075887 2.931467 8.140995 0.000000 0.000000 0.000000 7.756256 -8.665340 -22.024377 15.490631 -24.825096 3.429265 19.155351 -18.553233 -6.667934 0.000000 0.000000 0.000000 -7.125000 0.000000 0.000000 -6.443580 36.967055 -1.279930 0.000000 0.000000 0.000000 1.694817 -0.721712 8.431464 -17.793161 -27.891530 -4.452050 -21.914697 1.748595 6.154256 0.000000 0.000000 0.000000 7.125000 0.000000 0.000000 4.066753 36.583135 0.843522
5.963439 16.583677 -4.858339 -10.894886 -50.980028 10.841736 0.000000 0.000000 0.000000 -12.173360 6.468991 -10.049978 1.426510 7.552521 21.362943 0.573011 -9.055128 -13.990539 0.007641 -0.564872 -1.552262 0.000000 0.000000 0.000000 14.683089 21.527609 -12.782129 -5.084391 -13.478110 41.185783 -0.071125 4.512356 -5.322879 -0.043295 1.342916 -3.692908 2.220727 0.016225 1.664552 -0.397407 -0.044216 5.102151 -1.656539 0.051569 4.326500 6.077787 5.010783 -5.873397 -2.110834 6.235329 22.704793 -1.183564 3.141724 8.263329 0.000000 0.000000 0.000000 9.594097 -11.264406 -23.039769 15.026690 -24.183261 3.236862 18.934756 -18.331411 -6.619707 0.000000 0.000000 0.000000 -7.125000 0.000000 0.000000 -6.623036 36.903388 -1.326277 0.000000 0.000000 0.000000 2.566423 -1.006594 9.858547 -17.865739 -27.984944 -4.486037 -21.514703 1.923263 6.169744 0.000000 0.000000 0.000000 7.125000 0.000000 0.000000 4.404578 36.577003 0.914555
6.271915 16.559716 -4.556321 -13.190587 -54.919900 13.173230 0.000000 0.000000 0.000000 -13.234775 7.630748 -11.287334 1.667571 8.136263 23.128766 0.805480 -7.362854 -16.067145 0.007596 -0.564119 -1.550189 0.000000 0.000000 0.000000 17.296244 17.708482 -14.785983 -5.377459 -13.796654 42.429069 -0.530833 -2.647071 -14.976380 -0.022675 -0.971745 2.670951 2.051332 0.213134 1.606671 -0.671860 0.226853 5.005725 -1.839346 0.183594 4.271003 6.054835 5.210053 -6.012502 -2.282183 6.520655 23.112582 -1.205133 3.244211 8.445100 0.000000 0.000000 0.000000 10.606133 -12.312046 -23.050897 14.353779 -23.238133 2.966264 19.111316 -17.945236 -6.476280 0.000000 0.000000 0.000000 -7.125000 0.000000 0.000000 -6.457082 36.763380 -1.314902 0.000000 0.000000 0.000000 2.970346 -0.588508 11.214865 -18.143665 -28.340760 -4.617228 -21.067126 1.665803 6.308788 0.000000 0.000000 0.000000 7.125000 0.000000 0.000000 4.794780 36.699817 0.981612
6.496150 16.509364 -4.321109 -15.250940 -59.102511 15.575690 0.000000 0.000000 0.000000 -14.380035 8.838915 -12.771988 1.940251 8.740413 24.986831 1.025524 -5.885635 -18.079949 0.009812 -0.638298 -1.754056 0.000000 0.000000 0.000000 20.652740 12.693646 -16.160901 -5.213799 -13.620614 41.738484 -1.132714 -3.347269 -21.566901 -0.133224 2.346045 -6.463244 1.719359 0.426664 1.383645 -1.048404 0.527837 4.689254 -2.034682 0.325160 4.080992 6.045656 5.332823 -6.228970 -2.524930 6.715223 23.297659 -1.260261 3.299260 8.564828 0.000000 0.000000 0.000000 10.603027 -11.716072 -22.350019 13.952113 -22.666163 2.809618 19.450896 -17.647385 -7.444318 0.000000 0.000000 0.000000 -7.125000 0.000000 0.000000 -6.292040 37.801092 -1.120377 0.000000 0.000000 0.000000 3.106395 -0.448232 11.852855 -17.902436 -28.032035 -4.503323 -20.996397 2.103680 6.626375 0.000000 0.000000 0.000000 7.125000 0.000000 0.000000 4.887559 37.033932 0.960702
6.677838 16.462049 -4.160622 -17.755928 -63.286158 18.597576 0.000000 0.000000 0.000000 -15.406864 9.126980 -14.202544 2.210710 9.291844 26.712615 1.262109 -3.364380 -20.392876 0.016380 -0.825180 -2.267986 0.000000 0.000000 0.000000 23.437516 10.306970 -16.542153 -5.077209 -13.470234 41.155196 -1.636469 -3.539783 -25.655615 -0.355379 3.829939 -10.598703 1.807772 0.511758 1.165985 -1.330282 0.649965 4.337003 -2.371867 0.390763 3.848358 6.100467 5.591593 -6.345807 -3.061828 7.163327 23.085525 -1.402809 3.456023 8.556910 0.000000 0.000000 0.000000 9.503259 -10.486737 -20.405810 12.799538 -20.992736 2.380996 17.823840 -16.221649 -6.200709 0.000000 0.000000 0.000000 -7.125000 0.000000 0.000000 -7.500050 36.402156 -1.596853 0.000000 0.000000 0.000000 2.963639 -0.743744 12.705064 -17.727737 -27.807136 -4.421482 -21.056466 2.257436 6.659152 0.000000 0.000000 0.000000 7.125000 0.000000 0.000000 4.840324 37.072405 0.946803
6.777830 16.420835 -4.049927 -19.527723 -66.245241 20.570433 0.000000 0.000000 0.000000 -16.290190 9.983017 -14.992355 2.352446 9.564555 27.577899 1.400459 -1.928894 -21.829884 0.024289 -1.006278 -2.766096 0.000000 0.000000 0.000000 24.858143 10.408068 -14.648602 -4.481546 -12.774973 38.531891 -1.803449 -3.023458 -26.604422 -0.352319 3.813332 -10.552141 2.036775 0.215520 0.776620 -1.375648 0.249390 4.213293 -2.555748 0.200396 3.919958 6.318922 5.819409 -6.218479 -3.782390 7.592230 23.020023 -1.641728 3.600439 8.570652 0.000000 0.000000 0.000000 7.583748 -8.947664 -19.861596 12.037898 -19.861410 2.115103 18.847876 -15.107468 -9.062382 0.000000 0.000000 0.000000 -7.125000 0.000000 0.000000 -7.036533 39.452829 -0.967480 0.000000 0.000000 0.000000 2.581801 -0.857016 13.812793 -18.088008 -28.269717 -4.590884 -20.558232 1.880727 6.891857 0.000000 0.000000 0.000000 7.125000 0.000000 0.000000 5.286869 37.289068 1.006625
6.814282 16.408882 -3.990218 -20.724310 -67.898431 21.854565 0.000000 0.000000 0.000000 -16.786009 10.567517 -15.097404 2.350908 9.561626 27.568576 1.473346 -1.054340 -22.641413 0.021227 -0.940208 -2.584242 0.000000 0.000000 0.000000 25.367463 9.776569 -13.270991 -3.757094 -11.829973 35.133087 -1.716189 -4.188626 -26.546745 -0.006245 0.497972 -1.368319 2.646341 -0.136466 0.295149 -1.170205 -0.241867 4.072534 -2.700608 -0.025147 4.017273 6.279380 5.788425 -6.206093 -4.049438 7.599579 23.285550 -1.725410 3.564353 8.667956 0.000000 0.000000 0.000000 5.536509 -7.634955 -19.801909 11.616039 -19.226294 1.974028 18.295219 -14.851585 -8.465893 0.000000 0.000000 0.000000 -7.125000 0.000000 0.000000 -7.420315 38.788783 -1.142775 0.000000 0.000000 0.000000 2.259841 -0.589652 14.362927 -18.172175 -28.377027 -4.630806 -20.830118 1.557591 6.941446 0.000000 0.000000 0.000000 7.125000 0.000000 0.000000 5.062291 37.358801 0.954909
